<svg width="20" height="21" xmlns="http://www.w3.org/2000/svg"><path d="m10.348 4.316-8.953 8.738-.014 2.534 2.615-.015 8.934-8.74a.654.654 0 0 1-.062-.053l-2.52-2.464Zm.986-.966 2.496 2.443a.646.646 0 0 1 .076.087l1.558-1.523-2.571-2.542-1.559 1.535ZM.966 20.19a.691.691 0 1 1-.001-1.382h18.343a.691.691 0 1 1 .001 1.382H.966Zm-.948-7.413c0-.195.092-.373.216-.514l9.701-9.471 2.426-2.39a.776.776 0 0 1 1.066 0l3.476 3.433c.29.301.29.763 0 1.044L4.778 16.743a.738.738 0 0 1-.525.213l-3.511.016a.732.732 0 0 1-.742-.72v-.023l.017-3.453v.002Z" fill="#54a349" fill-rule="nonzero"/></svg>