<svg class="icon" viewBox="0 0 1024 1024" xmlns="http://www.w3.org/2000/svg" width="32" height="32"><path d="M256 529.067H85.333a17.067 17.067 0 1 1 0-34.134H256a17.067 17.067 0 0 1 0 34.134z" opacity=".278" fill="#fff"/><path d="M99.84 640a17.067 17.067 0 0 1-4.437-33.553l164.693-44.373a17.067 17.067 0 1 1 8.892 32.972L104.294 639.42a17.545 17.545 0 0 1-4.454.58z" opacity=".322" fill="#fff"/><path d="M264.533 462.524a16.896 16.896 0 0 1-4.369-.58l-164.693-43.52a17.05 17.05 0 1 1 8.721-32.99l164.693 43.52a17.067 17.067 0 1 1-4.352 33.57z" opacity=".239" fill="#fff"/><path d="M384.017 307.2a17.033 17.033 0 0 1-14.797-8.533L283.887 151.04a17.067 17.067 0 0 1 29.56-17.084l85.333 147.627a17.067 17.067 0 0 1-14.763 25.617z" opacity=".122" fill="#fff"/><path d="M639.983 307.2a17.05 17.05 0 0 1-14.763-25.6l85.334-147.627a17.067 17.067 0 1 1 29.56 17.067L654.78 298.667a17.033 17.033 0 0 1-14.797 8.533z" opacity=".922" fill="#fff"/><path d="M692.907 347.307a17.067 17.067 0 0 1-12.118-29.099l120.337-121.173a17.067 17.067 0 1 1 24.235 24.047L705.024 342.255a17.1 17.1 0 0 1-12.117 5.052z" opacity=".878" fill="#fff"/><path d="M733.884 401.067a17.067 17.067 0 0 1-8.55-31.847l147.626-85.333a17.05 17.05 0 1 1 17.067 29.542L742.4 398.763a16.777 16.777 0 0 1-8.516 2.304z" opacity=".839" fill="#fff"/><path d="M512 273.067A17.067 17.067 0 0 1 494.933 256V85.333a17.067 17.067 0 0 1 34.134 0V256A17.067 17.067 0 0 1 512 273.067z" fill="#fff"/><path d="M578.577 281.6a17.067 17.067 0 0 1-16.52-21.419l43.52-164.693a17.067 17.067 0 0 1 33.006 8.721l-43.52 164.693a17.067 17.067 0 0 1-16.486 12.698z" opacity=".961" fill="#fff"/><path d="M445.44 282.453a17.067 17.067 0 0 1-16.47-12.629l-44.373-164.693a17.067 17.067 0 0 1 32.956-8.892l44.373 164.693a17.067 17.067 0 0 1-16.486 21.521z" opacity=".078" fill="#fff"/><path d="M924.177 640c-1.485 0-2.97-.188-4.454-.58l-164.694-44.374a17.067 17.067 0 0 1 8.875-32.972l164.693 44.373a17.067 17.067 0 0 1-4.42 33.553z" opacity=".722" fill="#fff"/><path d="M881.476 742.4a17.015 17.015 0 0 1-8.482-2.27l-148.48-85.333a17.05 17.05 0 1 1 16.999-29.594l148.48 85.334a17.05 17.05 0 0 1-8.517 31.863z" opacity=".678" fill="#fff"/><path d="M813.227 830.293a17.015 17.015 0 0 1-12.066-5L680.823 704.956a17.05 17.05 0 1 1 24.133-24.133l120.337 120.338a17.05 17.05 0 0 1-12.066 29.132z" opacity=".639" fill="#fff"/><path d="M938.667 529.067H768a17.067 17.067 0 1 1 0-34.134h170.667a17.067 17.067 0 1 1 0 34.134z" opacity=".761" fill="#fff"/><path d="M401.067 941.227a17.067 17.067 0 0 1-16.487-21.504l44.374-164.694a17.067 17.067 0 1 1 32.955 8.875l-44.373 164.693a17.067 17.067 0 0 1-16.47 12.63z" opacity=".478" fill="#fff"/><path d="M298.65 898.56a17.067 17.067 0 0 1-14.78-25.566l85.333-148.48a17.084 17.084 0 0 1 29.594 16.999l-85.334 148.48a17.033 17.033 0 0 1-14.813 8.567z" opacity=".439" fill="#fff"/><path d="M512 955.733a17.067 17.067 0 0 1-17.067-17.066V768a17.067 17.067 0 1 1 34.134 0v170.667A17.067 17.067 0 0 1 512 955.733z" opacity=".522" fill="#fff"/><path d="M725.35 898.56a17.033 17.033 0 0 1-14.796-8.533L625.22 742.4a17.067 17.067 0 0 1 29.56-17.067l85.333 147.627a17.067 17.067 0 0 1-14.763 25.6z" opacity=".6" fill="#fff"/><path d="M622.063 942.08c-7.51 0-14.421-5.018-16.47-12.63l-44.39-164.693a17.067 17.067 0 1 1 32.973-8.874l44.39 164.693a17.067 17.067 0 0 1-16.503 21.504z" opacity=".561" fill="#fff"/><path d="M759.45 463.36a17.084 17.084 0 0 1-4.42-33.553l164.693-44.373a17.067 17.067 0 0 1 8.874 32.955l-164.693 44.374a16.657 16.657 0 0 1-4.454.597z" opacity=".702" fill="#fff"/><path d="M330.24 347.307a17.015 17.015 0 0 1-12.066-5l-120.32-120.32a17.05 17.05 0 1 1 24.132-24.133l120.32 120.32a17.05 17.05 0 0 1-12.066 29.133z" opacity=".161" fill="#fff"/><path d="M290.116 401.067a17.033 17.033 0 0 1-8.533-2.287l-147.627-85.334a17.067 17.067 0 1 1 17.084-29.542l147.627 85.333a17.067 17.067 0 0 1-8.55 31.83z" opacity=".2" fill="#fff"/><path d="M142.524 742.4a17.067 17.067 0 0 1-8.568-31.846l147.627-85.334a17.067 17.067 0 1 1 17.084 29.56L151.04 740.113a16.93 16.93 0 0 1-8.516 2.287z" opacity=".361" fill="#fff"/><path d="M209.92 830.293a17.067 17.067 0 0 1-12.117-29.098l120.32-121.174a17.067 17.067 0 0 1 24.217 24.03l-120.32 121.19a16.896 16.896 0 0 1-12.1 5.052z" opacity=".4" fill="#fff"/></svg>