<?xml version="1.0" encoding="UTF-8"?>
<svg width="20px" height="21px" viewBox="0 0 20 21" version="1.1" xmlns="http://www.w3.org/2000/svg" xmlns:xlink="http://www.w3.org/1999/xlink">
    <title>编组 9</title>
    <g id="运营销售看" stroke="none" stroke-width="1" fill="none" fill-rule="evenodd">
        <g id="客户管理-二维码" transform="translate(-650.000000, -1487.000000)" fill="#54a349" fill-rule="nonzero">
            <g id="信息输入/日期选择框:6/已选择/中等" transform="translate(650.000000, 1487.190476)">
                <path d="M10.3480733,4.12549028 L1.39505212,12.863581 L1.38126021,15.3972 L3.99551757,15.3827261 L12.9299196,6.64325692 C12.908126,6.62665327 12.8873973,6.60869788 12.867856,6.58949677 L10.3480733,4.12549028 L10.3480733,4.12549028 Z M11.3341951,3.15918619 L13.829842,5.60251571 C13.8574258,5.63008501 13.8836305,5.65765432 13.9056975,5.68935901 L15.4641839,4.166155 L12.8926815,1.62426522 L11.3341951,3.15918619 Z M0.966123592,20.0005847 C0.584318264,20.000965 0.27449515,19.6919222 0.274113945,19.310318 C0.273733444,18.9287137 0.582939073,18.6190537 0.964744401,18.6186727 L19.3079904,18.6186727 C19.5549751,18.6184268 19.7833298,18.7498947 19.9070356,18.963554 C20.0307413,19.1772133 20.0310042,19.4406041 19.9077252,19.6545097 C19.7844462,19.8684152 19.5563543,20.0003382 19.3093696,20.0005847 L0.966123592,20.0005847 Z M0.0179294821,12.5871987 C0.0179294821,12.3921459 0.10964571,12.2143239 0.234462542,12.0730312 L9.93500543,2.60228627 L12.3610032,0.212027653 C12.6600918,-0.0706758843 13.1280295,-0.0706758843 13.4271181,0.212027653 L16.9026805,3.64578439 C17.1923107,3.94697903 17.1923107,4.40807562 16.9026805,4.68997176 L4.7775191,16.5523538 C4.63818508,16.690375 4.44959559,16.7672592 4.25342636,16.7660159 L0.742004992,16.7819525 C0.547897227,16.7848136 0.360589725,16.710465 0.221392222,16.5752197 C0.0821947192,16.4399745 0.0025416136,16.2549422 0,16.0609309 L0,16.0388755 L0.0172398971,12.5858203 L0.0172398971,12.5871987 L0.0179294821,12.5871987 Z" id="形状备份"></path>
            </g>
        </g>
    </g>
</svg>
