<?xml version="1.0" encoding="UTF-8"?>
<svg width="16px" height="15px" viewBox="0 0 16 15" version="1.1" xmlns="http://www.w3.org/2000/svg" xmlns:xlink="http://www.w3.org/1999/xlink">
    <title>编组</title>
    <g id="运营销售看" stroke="none" stroke-width="1" fill="none" fill-rule="evenodd">
        <g id="客户管理-二维码" transform="translate(-511.000000, -1543.000000)" fill="#FFFFFF" fill-rule="nonzero">
            <g id="编组-12备份-3" transform="translate(232.000000, 124.000000)">
                <g id="编组-9备份-3" transform="translate(24.000000, 996.000000)">
                    <g id="编组-2" transform="translate(211.000000, 174.000000)">
                        <g id="编组-4备份-2" transform="translate(7.000000, 240.000000)">
                            <g id="编组-6" transform="translate(37.000000, 5.000000)">
                                <g id="编组" transform="translate(0.000000, 4.000000)">
                                    <path d="M15.3733441,6.51537841 C15.0268402,6.51537841 14.7466882,6.79553047 14.7466882,7.14203433 L14.7466882,12.8482894 C14.7466882,12.9699343 14.481281,13.1929501 14.046308,13.1929501 L1.95369197,13.1929501 C1.52056215,13.1929501 1.25331183,12.9699343 1.25331183,12.8482894 L1.25331183,6.83607879 C1.25331183,6.48957493 0.973159774,6.20942288 0.626655915,6.20942288 C0.280152056,6.20942288 0,6.48957493 0,6.83607879 L0,12.8501325 C0,13.3072227 0.235917521,13.7421956 0.645086972,14.0426218 C1.00264946,14.3043428 1.46711208,14.4481051 1.95369197,14.4481051 L14.046308,14.4481051 C14.5328879,14.4481051 14.9973505,14.3043428 15.354913,14.0426218 C15.7640825,13.7421956 16,13.3072227 16,12.8501325 L16,7.14203433 C16,6.79737357 15.7180048,6.51537841 15.3733441,6.51537841 Z" id="路径"></path>
                                    <path d="M6.74945283,10.4006451 C7.07752563,10.7324041 7.51434167,10.9167147 7.98064739,10.9185578 L7.98986292,10.9185578 C8.45248243,10.9185578 8.88929847,10.7397765 9.21737127,10.4135468 L12.0631264,7.59728142 C12.3082594,7.35399148 12.3119456,6.95772376 12.0668126,6.71074761 C11.8235226,6.46561456 11.4272549,6.46192835 11.1802788,6.7070614 L8.60914641,9.25239028 C8.62020505,9.20446953 8.62757747,9.15470568 8.62757747,9.10309872 L8.62757747,0.626655915 C8.62757747,0.280152056 8.34742541,6.70517923e-16 8.00092155,6.70517923e-16 C7.65441769,6.70517923e-16 7.37426564,0.280152056 7.37426564,0.626655915 L7.37426564,9.10309872 C7.37426564,9.1620781 7.38348117,9.21921438 7.39822601,9.27450755 L4.82340744,6.67204239 C4.5801175,6.42690934 4.18384979,6.42322313 3.93687363,6.66835618 C3.69174058,6.91164612 3.68805437,7.30791383 3.93318742,7.55488999 L6.74945283,10.4006451 Z" id="路径"></path>
                                </g>
                            </g>
                        </g>
                    </g>
                </g>
            </g>
        </g>
    </g>
</svg>