<?xml version="1.0" encoding="UTF-8"?>
<svg width="17px" height="16px" viewBox="0 0 17 16" version="1.1" xmlns="http://www.w3.org/2000/svg" xmlns:xlink="http://www.w3.org/1999/xlink">
    <title>路径</title>
    <g id="客户看页面" stroke="none" stroke-width="1" fill="none" fill-rule="evenodd">
        <g id="密码到期提醒" transform="translate(-1043.000000, -240.000000)" fill="#B0BBCD" fill-rule="nonzero">
            <g id="编组-20" transform="translate(356.000000, 216.000000)">
                <path d="M696.662037,32 L703.176688,25.4826341 C703.505531,25.1536538 703.505531,24.6112809 703.176688,24.2823006 L703.141137,24.2467352 C702.812294,23.9177549 702.270147,23.9177549 701.941304,24.2467352 L695.426653,30.7729925 L688.912002,24.2467352 C688.583159,23.9177549 688.041012,23.9177549 687.712169,24.2467352 L687.676618,24.2823006 C687.338887,24.6112809 687.338887,25.1536538 687.676618,25.4826341 L694.191269,32 L687.676618,38.5173659 C687.347775,38.8463462 687.347775,39.3887191 687.676618,39.7176994 L687.712169,39.7532648 C688.041012,40.0822451 688.583159,40.0822451 688.912002,39.7532648 L695.426653,33.2358989 L701.941304,39.7532648 C702.270147,40.0822451 702.812294,40.0822451 703.141137,39.7532648 L703.176688,39.7176994 C703.505531,39.3887191 703.505531,38.8463462 703.176688,38.5173659 L696.662037,32 Z" id="路径"></path>
            </g>
        </g>
    </g>
</svg>
