<?xml version="1.0" encoding="UTF-8"?>
<svg width="18px" height="18px" viewBox="0 0 18 18" version="1.1" xmlns="http://www.w3.org/2000/svg" xmlns:xlink="http://www.w3.org/1999/xlink">
    <title>下载</title>
    <g id="IREC" stroke="none" stroke-width="1" fill="none" fill-rule="evenodd">
        <g id="IREC绿证-电量签发--生产数据填报备份" class="iconfill" transform="translate(-1280.000000, -306.000000)" fill="#9CA8BA" fill-rule="nonzero">
            <g id="矩形备份-19" transform="translate(824.000000, 284.000000)">
                <g id="编组" transform="translate(456.000000, 22.000000)">
                    <path d="M17.3076751,13.1537757 C16.9248366,13.1537757 16.6153875,13.4632248 16.6153875,13.8460633 L16.6153875,16.6152884 L1.38464973,16.6152884 L1.38464973,13.8460633 C1.38464973,13.4632248 1.07449354,13.1537757 0.692324867,13.1537757 C0.310156191,13.1537757 0,13.4632248 0,13.8460633 L0,17.3076133 C0,17.6904518 0.310156191,17.9999009 0.692324867,17.9999009 L17.3076751,17.9999009 C17.6905137,17.9999009 18,17.6904518 18,17.3076133 L18,13.8460633 C18,13.4632248 17.6905137,13.1537757 17.3076751,13.1537757 Z M2.84667378,9.40368248 L8.45240738,15.0133752 C8.59017633,15.1518148 8.77019759,15.2182762 8.94950491,15.2169133 C8.97373563,15.2189902 8.99450482,15.2307594 9.01873554,15.2307594 C9.11983389,15.2307594 9.2139659,15.207221 9.30050419,15.1684518 C9.38773478,15.1352211 9.47081153,15.0846828 9.5414484,15.0140892 L15.15192,9.40805267 C15.4226334,9.13805322 15.423304,8.699845 15.1526339,8.42913161 C15.0176342,8.29343959 14.8404038,8.22561521 14.6624811,8.22559357 C14.485229,8.22559357 14.3087126,8.29343959 14.1730206,8.427747 L9.7111067,12.8879734 L9.7111067,0.692284627 C9.7111067,0.309439264 9.4009535,0 9.01877881,0 C8.63660412,0 8.32645091,0.309439264 8.32645091,0.692284627 L8.32645091,12.9218964 L3.82840733,8.42753065 C3.69338597,8.29183863 3.51479259,8.22330031 3.33756219,8.22330031 C3.16033178,8.22330031 2.98448599,8.29043238 2.84948627,8.4247398 C2.57743155,8.69406857 2.57673924,9.13299073 2.84673868,9.40366085 L2.84667378,9.40368248 Z" id="形状"></path>
                </g>
            </g>
        </g>
    </g>
</svg>