<?xml version="1.0" encoding="UTF-8"?>
<svg width="18px" height="18px" viewBox="0 0 18 18" version="1.1" xmlns="http://www.w3.org/2000/svg" xmlns:xlink="http://www.w3.org/1999/xlink">
    <title>删除</title>
    <g id="IREC" stroke="none" stroke-width="1" fill="none" fill-rule="evenodd">
        <g id="IREC绿证-电量签发--生产数据填报备份" class="iconfill" transform="translate(-578.000000, -456.000000)" fill="#9CA8BA" fill-rule="nonzero">
            <g id="矩形备份-20" transform="translate(164.000000, 434.000000)">
                <g id="编组" transform="translate(414.000000, 22.000000)">
                    <path d="M17.4375,3.375 L14.625,3.375 L14.625,1.12500001 C14.625,0.506250014 14.11875,-1.32532006e-16 13.5,-1.32532006e-16 L4.59375,-1.32532006e-16 C3.97500001,-1.32532006e-16 3.46874999,0.506249997 3.46874999,1.12500001 L3.46874999,3.375 L0.562499995,3.375 C0.25312499,3.375 5.95143727e-16,3.62812501 5.95143727e-16,3.9375 C5.95143727e-16,4.24687498 0.253125007,4.5 0.562499995,4.5 L4.59375,4.5 L13.5,4.5 L17.4375,4.5 C17.746875,4.5 18,4.24687498 18,3.9375 C18,3.62812501 17.746875,3.375 17.4375,3.375 Z M4.59562499,3.375 C4.59562499,3.375 4.59374998,3.373125 4.59374998,3.373125 L4.59374998,1.12687499 C4.59374998,1.12687499 4.59562499,1.12499999 4.59562499,1.12499999 L13.498125,1.12499999 C13.498125,1.12499999 13.5,1.12687499 13.5,1.12687499 L13.5,3.373125 C13.5,3.373125 13.498125,3.375 13.498125,3.375 L4.59562499,3.375 Z M15.1875,5.62500002 C14.87625,5.62500002 14.625,5.87625002 14.625,6.18750001 L14.625,16.3125 C14.625,16.621875 14.371875,16.875 14.0625,16.875 L3.9375,16.875 C3.62812499,16.875 3.375,16.621875 3.375,16.3125 L3.37499998,6.18750001 C3.37499998,5.87625002 3.12374998,5.62500002 2.81249999,5.62500002 C2.50125,5.62500002 2.25,5.87625002 2.25,6.18750001 L2.25,16.3125 C2.25,17.2425 3.00749999,18 3.9375,18 L14.0625,18 C14.9925,18 15.75,17.2425 15.75,16.3125 L15.75,6.18750001 C15.75,5.87625002 15.49875,5.62500002 15.1875,5.62500002 Z M7.3125,14.0625 L7.3125,6.18750001 C7.3125,5.87812501 7.05937499,5.62500002 6.75,5.62500002 C6.44062502,5.62500002 6.18750001,5.87812502 6.18750001,6.18750001 L6.18750001,14.0625 C6.18750001,14.371875 6.44062502,14.625 6.75,14.625 C7.05937499,14.625 7.3125,14.371875 7.3125,14.0625 Z M11.8125,14.0625 L11.8125,6.18750001 C11.8125,5.87812501 11.559375,5.62500002 11.25,5.62500002 C10.940625,5.62500002 10.6875,5.87812502 10.6875,6.18750001 L10.6875,14.0625 C10.6875,14.371875 10.940625,14.625 11.25,14.625 C11.559375,14.625 11.8125,14.371875 11.8125,14.0625 Z" id="形状"></path>
                </g>
            </g>
        </g>
    </g>
</svg>