<?xml version="1.0" encoding="UTF-8"?>
<svg width="14px" height="14px" viewBox="0 0 14 14" version="1.1" xmlns="http://www.w3.org/2000/svg" xmlns:xlink="http://www.w3.org/1999/xlink">
    <g id="IREC" stroke="none" stroke-width="1" fill="currentColor" fill-rule="evenodd">
        <g id="IREC绿证-设备申报-申报文件(有)" transform="translate(-1298.000000, -626.000000)">
            <g id="编组-31" transform="translate(104.000000, 206.000000)">
                <g id="编组-2备份-2" transform="translate(0.000000, 400.000000)">
                    <g id="General/Button/Icon/Light/Default备份" transform="translate(1182.000000, 11.000000)">
                        <g id="Icon/Save" transform="translate(12.000000, 9.000000)">
                            <rect id="矩形" fill="#000000" fill-rule="nonzero" opacity="0" x="0" y="0" width="14" height="14"></rect>
                            <path d="M5.46875,4.34355469 L6.47910156,4.34355469 L6.47910156,8.96875 C6.47910156,9.02890625 6.52832031,9.078125 6.58847656,9.078125 L7.40878906,9.078125 C7.46894531,9.078125 7.51816406,9.02890625 7.51816406,8.96875 L7.51816406,4.34355469 L8.53125,4.34355469 C8.62285156,4.34355469 8.6734375,4.23828125 8.61738281,4.1671875 L7.08613281,2.22851562 C7.04238281,2.17246094 6.95761719,2.17246094 6.91386719,2.22851562 L5.38261719,4.16582031 C5.3265625,4.23828125 5.37714844,4.34355469 5.46875,4.34355469 L5.46875,4.34355469 Z M12.0039062,8.55859375 L11.1835938,8.55859375 C11.1234375,8.55859375 11.0742188,8.6078125 11.0742188,8.66796875 L11.0742188,10.7734375 L2.92578125,10.7734375 L2.92578125,8.66796875 C2.92578125,8.6078125 2.8765625,8.55859375 2.81640625,8.55859375 L1.99609375,8.55859375 C1.9359375,8.55859375 1.88671875,8.6078125 1.88671875,8.66796875 L1.88671875,11.375 C1.88671875,11.6169922 2.08222656,11.8125 2.32421875,11.8125 L11.6757812,11.8125 C11.9177734,11.8125 12.1132812,11.6169922 12.1132812,11.375 L12.1132812,8.66796875 C12.1132812,8.6078125 12.0640625,8.55859375 12.0039062,8.55859375 Z" id="形状" fill="#758BA2"></path>
                        </g>
                    </g>
                </g>
            </g>
        </g>
    </g>
</svg>